<svg width="148" height="187" viewBox="0 0 148 187" fill="none" xmlns="http://www.w3.org/2000/svg">
<path fill-rule="evenodd" clip-rule="evenodd" d="M90.3185 21.1765C92.9738 18.0597 94.7709 14.2401 94.4706 9.96015C93.6054 -2.37166 76.4391 0.341178 73.0999 6.56522C69.7607 12.7893 70.1574 28.5771 74.4731 29.6895C76.1941 30.1331 79.8605 29.0464 83.592 26.7972L81.2498 43.3674H95.0796L90.3185 21.1765Z" fill="#B28B67"/>
<path fill-rule="evenodd" clip-rule="evenodd" d="M76.2164 2.46102C76.5332 2.27195 77.1959 1.87315 77.5317 1.72862C77.6111 1.69384 78.1675 1.29694 78.1824 1.30193C78.6036 1.44407 79.8233 1.96872 79.928 2.42206C79.9442 2.45641 79.9602 2.48864 79.9757 2.51681C80.1485 2.83099 80.3071 3.15299 80.4584 3.47889C80.7903 4.1943 81.0769 4.94202 81.3506 5.68386C81.8836 7.12861 82.3467 8.60702 82.7725 10.0888C83.206 11.5972 83.5739 13.1233 83.9858 14.6379C84.5784 16.8174 85.3369 18.9435 85.9255 21.1221C86.3013 22.5132 86.5104 23.9206 86.4117 25.3524C86.4107 25.3696 86.4102 25.3866 86.4086 25.4041C86.408 25.4112 86.4071 25.4183 86.4065 25.4255C86.3897 25.6456 86.3658 25.8662 86.3339 26.0875C86.306 26.2767 86.278 26.4666 86.2481 26.6565C85.7105 25.5845 85.3001 24.4032 84.8645 23.282C84.8219 23.1723 84.7812 23.0617 84.7415 22.9508C84.6011 22.7234 84.4579 22.4977 84.3131 22.2728C83.3999 20.8547 82.4831 19.4417 81.6074 17.998C80.0324 15.4012 78.4721 12.7495 76.6048 10.365C76.0534 9.66084 75.4892 8.96748 74.9447 8.25756C74.6349 7.85358 74.3331 7.44283 74.0411 7.02478C73.8324 6.72584 72.9248 5.68386 73.2535 5.05781C73.4216 4.7375 75.3947 2.95154 76.2164 2.46102Z" fill="#211F1F"/>
<path fill-rule="evenodd" clip-rule="evenodd" d="M77.4316 1.78086C77.1235 1.88438 77.2734 1.24334 77.5718 1.01776C78.9541 -0.027329 84.2389 -0.406569 88.8379 0.54812C91.9187 1.18767 95.5019 2.77948 97.9626 4.82588C100.181 6.67072 101.707 9.62808 102.492 12.4854C103.317 15.4856 103.442 18.6135 102.982 21.6901C102.881 22.3659 102.664 23.0099 102.543 23.6713C102.407 24.4162 102.338 25.1334 102.095 25.8581C101.946 26.3018 101.694 26.7368 101.567 27.183C101.422 27.6921 101.511 28.1632 101.616 28.681C101.788 29.5251 102.001 30.3675 102.304 31.1736C102.759 32.3842 103.312 33.5179 103.658 34.7741C104.118 36.4456 106.045 41.8849 104.637 43.3675H77.8313C78.5062 41.5262 80.5324 39.3593 80.9425 37.3883C81.1841 36.2272 81.299 33.6916 81.3243 33.5994C81.9284 29.4353 83.1079 27.4468 83.8467 26.7251C84.5854 26.0035 85.5693 25.7815 85.62 25.1556C85.8296 22.5665 84.8 20.0858 84.0451 17.6695C83.1454 14.7897 82.486 11.8384 81.5584 8.96836C81.1477 7.69743 79.0311 1.24334 77.4316 1.78086Z" fill="#211F1F"/>
<path fill-rule="evenodd" clip-rule="evenodd" d="M86.8302 4.7594C87.841 7.96672 88.0584 9.67878 87.841 14.0611H88.3369C89.2632 9.92551 88.4388 6.03226 87.4534 4.7594H86.8302ZM100.391 13.0367C98.5077 17.6075 97.6488 20.3066 92.3885 24.0053L92.7947 24.2898C98.0167 21.3303 99.5374 17.8001 100.788 13.2271L100.391 13.0367ZM92.6517 8.38528C91.7961 14.873 91.5463 18.5788 87.0892 25.6756L87.5634 25.8205C92.1505 19.6415 92.8777 14.5982 93.0944 8.42091L92.6517 8.38528ZM97.5751 27.6571L97.1694 27.1639C91.6332 28.8979 92.2499 32.4779 85.2771 36.1035L85.8598 36.4565C91.9654 33.9368 93.3927 28.5324 97.5751 27.6571Z" fill="black" fill-opacity="0.2"/>
<path fill-rule="evenodd" clip-rule="evenodd" d="M120.075 115.398H75.5582L69.725 186.851H135.993L120.075 115.398Z" fill="#C5CFD6"/>
<path fill-rule="evenodd" clip-rule="evenodd" d="M120.075 115.398H106.384L98.1891 186.851H135.993L120.075 115.398Z" fill="black" fill-opacity="0.1"/>
<path fill-rule="evenodd" clip-rule="evenodd" d="M24.8051 103.156C20.0588 100.306 12.0955 103.968 12.1009 108.044C12.1173 120.24 23.2473 177.719 23.8285 181.352C24.4096 184.986 30.6348 185.945 30.9973 181.364C31.5741 174.074 32.6458 148.839 31.5735 137.158C31.1309 132.336 30.6543 127.744 30.185 123.648C36.0253 134.195 45.0577 149.295 57.2822 168.95L63.9185 165.918C58.7072 148.748 54.434 136.627 51.0989 129.554C45.3885 117.443 40.034 107.072 37.7805 103.419C34.2357 97.6722 28.0654 99.6772 24.8051 103.156Z" fill="#B28B67"/>
<path fill-rule="evenodd" clip-rule="evenodd" d="M63.4441 156.383L40.6667 102.425C35.2101 93.6472 19.9113 104.211 21.7721 109.302C25.9967 120.86 47.4823 158.278 48.741 161.722L63.4441 156.383Z" fill="#1F28CF"/>
<path fill-rule="evenodd" clip-rule="evenodd" d="M64.7093 162.515C66.128 163.683 67.051 164.637 67.4782 165.377C67.9978 166.277 68.606 167.677 69.303 169.576C68.259 170.179 58.8768 175.596 41.1563 185.827C39.0288 183.831 38.6973 182.282 40.1618 181.179C41.6264 180.077 42.835 179.147 43.7877 178.389L53.5028 165.004C53.6897 164.747 54.05 164.689 54.3076 164.876C54.312 164.88 54.3164 164.883 54.3207 164.886L56.3393 166.441C58.1912 166.279 59.5731 165.935 60.4852 165.408C61.2263 164.98 62.0769 164.09 63.037 162.738L63.037 162.738C63.4055 162.219 64.1249 162.097 64.6439 162.465C64.6663 162.481 64.6881 162.498 64.7093 162.515Z" fill="#E4E4E4"/>
<path fill-rule="evenodd" clip-rule="evenodd" d="M32.4549 178.439C33.0995 180.16 33.4219 181.448 33.4219 182.302C33.4219 183.341 33.2488 184.858 32.9025 186.851C31.6971 186.851 20.8634 186.851 0.401539 186.851C-0.443047 184.059 0.0444946 182.552 1.86417 182.329C3.68384 182.107 5.19548 181.906 6.39907 181.726L21.5052 174.992C21.7959 174.862 22.1366 174.993 22.2662 175.283C22.2684 175.288 22.2705 175.293 22.2726 175.298L23.2436 177.654C24.9282 178.44 26.297 178.833 27.3502 178.833C28.2059 178.833 29.3876 178.487 30.8954 177.796L30.8954 177.796C31.474 177.531 32.158 177.785 32.4233 178.363C32.4347 178.388 32.4452 178.414 32.4549 178.439Z" fill="#E4E4E4"/>
<path fill-rule="evenodd" clip-rule="evenodd" d="M10.5044 112.19C10.5044 127.499 17.7747 163.208 17.7793 166.579L33.4217 166.591C31.1321 134.728 30.3203 118.624 30.9861 118.281C31.9849 117.766 71.9285 122.269 83.9082 122.269C101.183 122.269 108.329 111.376 108.909 91.1954H74.6884C67.7207 91.941 31.3767 99.2716 17.8793 101.792C12.1008 102.87 10.5044 107.972 10.5044 112.19Z" fill="#2B44FF"/>
<path fill-rule="evenodd" clip-rule="evenodd" d="M45.8151 83.9695L29.4914 99.8939C24.7418 101.92 20.8502 104.157 17.8165 106.605C17.1343 107.428 16.3916 109.005 19.6014 108.299C22.8112 107.594 26.2192 106.996 26.8225 108.04C27.4258 109.084 25.6481 110.683 26.7631 112.049C27.5064 112.96 30.0061 110.063 34.2623 103.358L51.2368 93.3507L45.8151 83.9695ZM125.638 69.5574L113.02 69.6047C122.63 100.741 127.732 117.044 128.324 118.512C129.658 121.817 126.836 126.85 125.629 129.554C129.559 131.313 129.141 124.8 134.098 127.106C138.623 129.212 142.065 133.026 147.293 129.8C147.936 129.404 148.64 127.91 146.939 126.743C142.699 123.836 136.589 118.748 135.763 117.073C134.638 114.789 131.262 98.9508 125.638 69.5574Z" fill="#B28B67"/>
<path fill-rule="evenodd" clip-rule="evenodd" d="M87.1882 33.7626L82.2054 32.9079C74.356 60.655 34.0257 79.5685 31.5498 89.941C30.6419 93.7449 33.3795 95.6678 31.9654 96.8265L38.4421 101.568C39.5389 100.288 41.8794 102.629 46.7671 100.991C51.6548 99.3541 87.1882 66.6175 87.1882 33.7626Z" fill="#86BC26"/>
<path fill-rule="evenodd" clip-rule="evenodd" d="M78.8064 37.4515C79.3809 74.1865 58.1453 83.557 62.8754 98.2936C66.7814 110.463 104.169 123.545 110.638 111.616C113.257 106.787 114.445 100.948 114.58 94.5984C116.234 99.4762 117.541 103.675 118.503 107.196C120.163 113.27 126.597 114.235 126.597 116.575L135.073 114.235C134.498 111.056 138.494 109.509 137.422 102.407C132.622 70.5887 119.724 47.5245 98.7278 33.2146L98.5106 30.1083C98.4218 28.8384 97.3204 27.8809 96.0505 27.9697L80.5299 29.055C79.26 29.1438 78.3025 30.2452 78.3913 31.5151L78.8064 37.4515Z" fill="#86BC26"/>
</svg>
